<?xml version="1.0" standalone="no"?><!DOCTYPE svg PUBLIC "-//W3C//DTD SVG 1.1//EN" "http://www.w3.org/Graphics/SVG/1.1/DTD/svg11.dtd"><svg t="1737534164108" class="icon" viewBox="0 0 1024 1024" version="1.1" xmlns="http://www.w3.org/2000/svg" p-id="7209" xmlns:xlink="http://www.w3.org/1999/xlink" width="200" height="200"><path d="M701.28 766.86a58.9 58.9 0 0 1 83.1 83.52l-102.24 102c-94.3 94.16-248 95.52-344 3.16-0.56-0.52-43.26-42.4-184.12-180.54-93.72-92-103.06-238.94-14.88-333.36l164.44-176C391.12 172 552.46 161.68 652.54 242.6l149.34 120.78a58.92 58.92 0 0 1-74 91.76l-149.34-120.78c-52.34-42.34-144-36.52-189.06 11.84l-164.44 176c-42.94 46-38.22 120 11.26 168.54l183.26 179.7c49.86 48 130.48 47.3 179.42-1.58z" fill="#FFA116" p-id="7210"></path><path d="M452.94 664.7a58.96 58.96 0 0 1 0-118h434a58.96 58.96 0 0 1 0 118z" fill="#B3B3B3" p-id="7211"></path><path d="M534.22 18.68a58.9 58.9 0 1 1 86 80.56L225.1 522.28c-42.92 46-38.22 120 11.24 168.54l182.46 178.9A58.92 58.92 0 0 1 336.46 954L154.06 775.08c-93.7-92-103.04-238.94-14.84-333.36z" p-id="7212"></path></svg>