<?xml version="1.0" standalone="no"?><!DOCTYPE svg PUBLIC "-//W3C//DTD SVG 1.1//EN" "http://www.w3.org/Graphics/SVG/1.1/DTD/svg11.dtd"><svg t="1738952415662" class="icon" viewBox="0 0 1024 1024" version="1.1" xmlns="http://www.w3.org/2000/svg" p-id="10055" xmlns:xlink="http://www.w3.org/1999/xlink" width="200" height="200"><path d="M649.785579 0c11.818905 11.229676 5.920894 2.145251 11.44134 22.882682 41.995441 0.040045 46.440402 7.173721 68.648045 22.882681l28.603352 120.134078c35.342302-14.827978 69.305922-25.908916 114.413408-17.162011 0.074369 17.92286-10.423061 20.840402 11.441341 28.603352l68.648044 17.162011c60.433162 154.532469-62.469721 271.011039-137.296089 360.402235 11.893274 27.178905 30.142212 48.007866 11.441341 74.368715-19.833564 39.077899-78.098592 40.296402-91.530727 80.089385l-22.882681 314.636872-5.720671-5.72067-11.44134 5.72067c-36.732425-72.297832-39.941721-204.765676-40.044693-303.195531-30.760045-8.581006-43.580067-27.321922-57.206704-40.044692-6.515844-6.081073-19.147084-3.58686-22.882682-11.441341-4.43352-9.318972 9.050101-28.877944 5.720671-40.044693-1.178458-3.952983-13.895508-3.32943-17.162011-5.72067-13.615196 11.910436 0.915307 4.999866-17.162011 5.72067-13.849743-39.472626-40.982883-109.201877-74.368716-131.575419-10.016894 66.502793-37.539039 130.951866-62.927374 194.502793-2.116648 5.297341-3.472447 17.734078-5.72067 22.882682-13.506503 31.040358-18.68943 60.067039-37.516157 84.528626-17.819888 23.12295-43.425609 37.29305-65.45591 52.767463-106.976536-20.457117-136.283531-112.073654-132.204693-225.005408 1.458771-40.262078 2.162413-88.224179 12.070614-129.676156-55.101497-16.790168-80.953207-49.455196-120.134078-80.089385L54.835858 331.798883h5.72067l22.882682 22.882681 40.044693 34.324023h5.72067c30.079285-18.437721 52.967687-23.695017 68.648045-57.206704 33.179888-76.868648 19.650503-232.974302 5.72067-314.636872l5.72067-5.72067h17.162012c19.28438 15.857698 14.982436 19.936536 51.486033 22.882681 9.032939 50.130235 12.877229 106.221408 28.603352 148.737431 9.72514 26.315084 25.228156 43.316916 45.765363 62.927374 26.526749-8.695419 32.333229-6.624536 62.927375 0l-17.162012 5.72067 5.720671 22.882682c55.433296-0.926749 77.932693-25.422659 102.972067-22.882682 37.184358 11.035173 26.378011 26.275039 45.765363 51.486034l102.972067-80.089386a1201.609654 1201.609654 0 0 0-11.441341-154.4581c-2.545698-17.402279-12.951598-29.856179-11.441341-40.044693z m228.826815 154.458101z m-57.206704 80.089385l-57.206704 34.324022c-7.288134 35.696983-12.173587 97.823464 5.720671 137.29609 46.909497-27.144581 75.083799-93.155397 85.810056-154.458101z m-549.184357 463.374302c92.205765-16.589944 185.841698-262.515844 194.502793-360.402235l-11.441341-11.441341h-5.72067C376.337534 391.333899 306.156349 410.744134 289.383344 469.094972a461.257654 461.257654 0 0 0-11.441341 108.692737 91.576492 91.576492 0 0 1 0 11.441341c-1.859218 22.505117-6.178324 63.499441-5.72067 108.692738z m371.843575-354.681565l-34.324022 57.206704h5.72067l45.765363-34.324022v-22.882682h-17.162011z m0 114.413408l-28.603352 17.162011c5.903732 29.432849 6.607374 31.909899 34.324023 40.044693l-5.720671-57.206704z m-40.044693 97.251397l5.720671 34.324022h17.162011l5.72067-22.882681c-11.34981-9.153073-7.946011-7.436872-28.603352-11.441341z m-348.960893 40.044693v22.882681l17.162011-5.72067v-17.162011h-17.162011z" p-id="10056" fill="#2c2c2c"></path></svg>